<svg width="93" height="41" viewBox="0 0 93 41" fill="none" xmlns="http://www.w3.org/2000/svg">
<path d="M5.77246 40.3672H0.132812V10.0361H1.48633L3.72168 12.6816C4.22754 12.2031 4.78125 11.752 5.38281 11.3281C5.98438 10.9043 6.60645 10.542 7.24902 10.2412C7.90527 9.92676 8.58203 9.68066 9.2793 9.50293C9.97656 9.3252 10.6807 9.23633 11.3916 9.23633C12.9365 9.23633 14.3857 9.5166 15.7393 10.0771C17.1064 10.624 18.2959 11.4033 19.3076 12.415C20.333 13.4268 21.1396 14.6504 21.7275 16.0859C22.3154 17.5078 22.6094 19.0869 22.6094 20.8232C22.6094 22.6279 22.3154 24.2549 21.7275 25.7041C21.1396 27.1396 20.333 28.3633 19.3076 29.375C18.2959 30.373 17.1064 31.1387 15.7393 31.6719C14.3857 32.2051 12.9365 32.4717 11.3916 32.4717C10.8994 32.4717 10.4072 32.417 9.91504 32.3076C9.43652 32.1982 8.95801 32.0547 8.47949 31.877C8.01465 31.6855 7.5498 31.4736 7.08496 31.2412C6.63379 31.0088 6.19629 30.7695 5.77246 30.5234V40.3672ZM16.9902 20.8232C16.9902 19.8936 16.8398 19.0596 16.5391 18.3213C16.252 17.583 15.8555 16.9609 15.3496 16.4551C14.8438 15.9355 14.249 15.5391 13.5654 15.2656C12.8818 14.9922 12.1572 14.8555 11.3916 14.8555C10.626 14.8555 9.90137 14.9922 9.21777 15.2656C8.54785 15.5391 7.95996 15.9355 7.4541 16.4551C6.94824 16.9609 6.54492 17.583 6.24414 18.3213C5.95703 19.0596 5.81348 19.8936 5.81348 20.8232C5.81348 21.7119 5.95703 22.5254 6.24414 23.2637C6.54492 24.002 6.94824 24.6309 7.4541 25.1504C7.95996 25.6699 8.54785 26.0732 9.21777 26.3604C9.90137 26.6475 10.626 26.791 11.3916 26.791C12.1572 26.791 12.8818 26.6475 13.5654 26.3604C14.249 26.0732 14.8438 25.6699 15.3496 25.1504C15.8555 24.6309 16.252 24.002 16.5391 23.2637C16.8398 22.5254 16.9902 21.7119 16.9902 20.8232ZM32.3301 4.06836C32.3301 4.58789 32.2275 5.07324 32.0225 5.52441C31.8311 5.97559 31.5645 6.37207 31.2227 6.71387C30.8809 7.04199 30.4775 7.30859 30.0127 7.51367C29.5615 7.70508 29.0762 7.80078 28.5566 7.80078C28.0371 7.80078 27.5449 7.70508 27.0801 7.51367C26.6289 7.30859 26.2324 7.04199 25.8906 6.71387C25.5625 6.37207 25.2959 5.97559 25.0908 5.52441C24.8994 5.07324 24.8037 4.58789 24.8037 4.06836C24.8037 3.5625 24.8994 3.08398 25.0908 2.63281C25.2959 2.16797 25.5625 1.77148 25.8906 1.44336C26.2324 1.10156 26.6289 0.834961 27.0801 0.643555C27.5449 0.438477 28.0371 0.335938 28.5566 0.335938C29.0762 0.335938 29.5615 0.438477 30.0127 0.643555C30.4775 0.834961 30.8809 1.10156 31.2227 1.44336C31.5645 1.77148 31.8311 2.16797 32.0225 2.63281C32.2275 3.08398 32.3301 3.5625 32.3301 4.06836ZM31.3662 32H25.7266V10.0361H31.3662V32ZM41.251 32H35.6523V10.0361H37.0059L38.8516 12.1689C39.7539 11.3486 40.7725 10.7197 41.9072 10.2822C43.0557 9.83105 44.252 9.60547 45.4961 9.60547C46.8359 9.60547 48.1006 9.86523 49.29 10.3848C50.4795 10.8906 51.5186 11.5947 52.4072 12.4971C53.2959 13.3857 53.9932 14.4316 54.499 15.6348C55.0186 16.8242 55.2783 18.0957 55.2783 19.4492V32H49.6797V19.4492C49.6797 18.875 49.5703 18.335 49.3516 17.8291C49.1328 17.3096 48.832 16.8584 48.4492 16.4756C48.0664 16.0928 47.6221 15.792 47.1162 15.5732C46.6104 15.3545 46.0703 15.2451 45.4961 15.2451C44.9082 15.2451 44.3545 15.3545 43.835 15.5732C43.3154 15.792 42.8643 16.0928 42.4814 16.4756C42.0986 16.8584 41.7979 17.3096 41.5791 17.8291C41.3604 18.335 41.251 18.875 41.251 19.4492V32ZM65.7578 32H59.8721V2.5918H65.7578V32ZM83.5791 32H77.7139V8.47754H68.875V2.5918H92.3975V8.47754H83.5791V32Z" fill="white"/>
</svg>
