<svg width="14" height="27" viewBox="0 0 14 27" fill="none" xmlns="http://www.w3.org/2000/svg">
<path d="M0.56 21V19.94H1.38C1.67333 19.94 1.92 19.8667 2.12 19.72C2.32 19.5733 2.42 19.2133 2.42 18.64V9.06C2.42 8.52667 2.31333 8.18 2.1 8.02C1.9 7.86 1.66 7.78 1.38 7.78H0.56V6.72H6.4C8.30667 6.72 9.73333 7.01333 10.68 7.6C11.64 8.18667 12.12 9.10667 12.12 10.36C12.12 11.24 11.8867 11.9067 11.42 12.36C10.9533 12.8133 10.3467 13.16 9.6 13.4V13.5C10.52 13.7267 11.2667 14.14 11.84 14.74C12.4267 15.3267 12.72 16.1067 12.72 17.08C12.72 19.6933 10.8133 21 7 21H0.56ZM6.34 12.92C7.27333 12.92 7.90667 12.72 8.24 12.32C8.58667 11.92 8.76 11.2667 8.76 10.36C8.76 9.45333 8.57333 8.82667 8.2 8.48C7.84 8.12 7.20667 7.94 6.3 7.94H5.58V12.92H6.34ZM6.9 19.78C7.79333 19.78 8.42667 19.5733 8.8 19.16C9.17333 18.7467 9.36 18.0333 9.36 17.02C9.36 16.0333 9.18667 15.3067 8.84 14.84C8.49333 14.3733 7.86 14.14 6.94 14.14H5.58V19.78H6.9Z" fill="white"/>
</svg>
