<svg width="11" height="11" viewBox="0 0 11 11" fill="none" xmlns="http://www.w3.org/2000/svg">
<path d="M9.65263 1.69449C9.10445 1.14696 8.45307 0.715092 7.73672 0.424217C7.02037 0.133343 6.25347 -0.0106751 5.48104 0.000616068C4.03101 -0.00303039 2.63892 0.572892 1.61103 1.60169C0.583142 2.63048 0.00364219 4.02787 1.71098e-05 5.48646C-0.00360797 6.94504 0.568938 8.34533 1.5917 9.37928C2.61447 10.4132 4.00367 10.9961 5.4537 10.9998C5.76616 11.0051 6.07153 10.906 6.32189 10.7178C6.57225 10.5297 6.75341 10.2633 6.83694 9.96037C6.89019 9.74163 6.88964 9.51312 6.83534 9.29464C6.78103 9.07615 6.67462 8.87427 6.5253 8.70647C6.49078 8.66694 6.46825 8.61828 6.46039 8.56627C6.45253 8.51425 6.45968 8.46106 6.48098 8.413C6.50227 8.36495 6.53683 8.32405 6.58054 8.29515C6.62425 8.26626 6.67529 8.25059 6.72759 8.25H7.62971C8.47876 8.25399 9.29788 7.93473 9.92259 7.35633C10.5473 6.77792 10.9313 5.9832 10.9976 5.13173C11.0179 4.49687 10.9091 3.86451 10.6779 3.27345C10.4466 2.68239 10.0977 2.14509 9.65263 1.69449ZM2.70909 7.00709C2.57485 7.09886 2.41656 7.1485 2.25426 7.14973C2.09196 7.15095 1.93294 7.1037 1.79735 7.01397C1.66176 6.92423 1.55569 6.79604 1.49257 6.64563C1.42945 6.49522 1.41211 6.32935 1.44276 6.16902C1.47342 6.0087 1.55067 5.86113 1.66475 5.74499C1.77883 5.62886 1.9246 5.54939 2.08361 5.51664C2.24262 5.48389 2.40771 5.49934 2.55799 5.56103C2.70826 5.62272 2.83696 5.72787 2.92778 5.86318C2.98865 5.95255 3.03129 6.05317 3.05324 6.15922C3.0752 6.26527 3.07603 6.37465 3.0557 6.48103C3.03536 6.58741 2.99425 6.68868 2.93476 6.77897C2.87527 6.86927 2.79856 6.94681 2.70909 7.00709ZM3.50732 3.98782C3.42953 4.13274 3.3104 4.25093 3.16525 4.32715C3.02011 4.40338 2.85561 4.43416 2.69292 4.41553C2.53024 4.3969 2.37682 4.32971 2.25243 4.22262C2.12804 4.11553 2.03836 3.97343 1.99494 3.81463C1.95153 3.65582 1.95636 3.48758 2.00883 3.33156C2.06129 3.17555 2.15898 3.0389 2.28932 2.93921C2.41965 2.83953 2.57667 2.78137 2.74015 2.77222C2.90364 2.76308 3.0661 2.80337 3.20662 2.8879C3.38794 2.99698 3.52042 3.17224 3.57644 3.37715C3.63246 3.58206 3.6077 3.80082 3.50732 3.98782ZM4.98351 2.75041C4.82131 2.75041 4.66275 2.70203 4.52788 2.61138C4.39302 2.52074 4.2879 2.3919 4.22583 2.24116C4.16376 2.09042 4.14752 1.92456 4.17916 1.76453C4.21081 1.60451 4.28891 1.45752 4.40361 1.34215C4.5183 1.22678 4.66443 1.14822 4.82351 1.11638C4.9826 1.08455 5.14749 1.10089 5.29735 1.16333C5.4472 1.22577 5.57528 1.3315 5.6654 1.46716C5.75551 1.60282 5.80361 1.76231 5.80361 1.92547C5.80361 2.14426 5.71721 2.35409 5.56341 2.50879C5.40961 2.6635 5.20101 2.75041 4.98351 2.75041ZM8.12724 3.19038C7.98671 3.27491 7.82425 3.3152 7.66077 3.30606C7.49729 3.29691 7.34027 3.23875 7.20993 3.13907C7.0796 3.03938 6.98191 2.90273 6.92944 2.74672C6.87698 2.5907 6.87214 2.42246 6.91556 2.26365C6.95897 2.10485 7.04865 1.96275 7.17305 1.85566C7.29744 1.74856 7.45086 1.68138 7.61354 1.66275C7.77622 1.64412 7.94073 1.6749 8.08587 1.75112C8.23101 1.82735 8.35015 1.94554 8.42794 2.09046C8.52832 2.27746 8.55307 2.49622 8.49705 2.70113C8.44103 2.90604 8.30856 3.0813 8.12724 3.19038Z" fill="#C4C4C4"/>
</svg>
