<svg width="18" height="18" viewBox="0 0 18 18" fill="none" xmlns="http://www.w3.org/2000/svg">
<path d="M15 18H9C8.20435 18 7.44129 17.6839 6.87868 17.1213C6.31607 16.5587 6 15.7956 6 15V9C6 8.20435 6.31607 7.44129 6.87868 6.87868C7.44129 6.31607 8.20435 6 9 6H15C15.7956 6 16.5587 6.31607 17.1213 6.87868C17.6839 7.44129 18 8.20435 18 9V15C18 15.7956 17.6839 16.5587 17.1213 17.1213C16.5587 17.6839 15.7956 18 15 18ZM9 8C8.73478 8 8.48043 8.10536 8.29289 8.29289C8.10536 8.48043 8 8.73478 8 9V15C8 15.2652 8.10536 15.5196 8.29289 15.7071C8.48043 15.8946 8.73478 16 9 16H15C15.2652 16 15.5196 15.8946 15.7071 15.7071C15.8946 15.5196 16 15.2652 16 15V9C16 8.73478 15.8946 8.48043 15.7071 8.29289C15.5196 8.10536 15.2652 8 15 8H9Z" fill="white"/>
<path d="M6.73 12H2.67C1.96268 11.9974 1.28509 11.7152 0.784935 11.2151C0.284783 10.7149 0.00263436 10.0373 0 9.33V2.67C0.00263436 1.96268 0.284783 1.28509 0.784935 0.784935C1.28509 0.284783 1.96268 0.00263436 2.67 0H9.33C10.0373 0.00263436 10.7149 0.284783 11.2151 0.784935C11.7152 1.28509 11.9974 1.96268 12 2.67V6.4H10V2.67C10 2.49231 9.92941 2.32189 9.80376 2.19624C9.67811 2.07059 9.50769 2 9.33 2H2.67C2.49231 2 2.32189 2.07059 2.19624 2.19624C2.07059 2.32189 2 2.49231 2 2.67V9.33C2 9.50769 2.07059 9.67811 2.19624 9.80376C2.32189 9.92941 2.49231 10 2.67 10H6.73V12Z" fill="white"/>
</svg>
