<svg width="38" height="32" viewBox="0 0 38 32" fill="none" xmlns="http://www.w3.org/2000/svg">
<rect width="38" height="32" rx="5" fill="#606060"/>
<path d="M12 8.8V23.2C12 23.6774 12.1896 24.1352 12.5272 24.4728C12.8648 24.8104 13.3226 25 13.8 25H24.6C25.0774 25 25.5352 24.8104 25.8728 24.4728C26.2104 24.1352 26.4 23.6774 26.4 23.2V12.7078C26.4 12.468 26.352 12.2306 26.259 12.0096C26.1659 11.7886 26.0297 11.5884 25.8582 11.4208L21.8622 7.513C21.5259 7.18419 21.0743 7.00006 20.604 7H13.8C13.3226 7 12.8648 7.18964 12.5272 7.52721C12.1896 7.86477 12 8.32261 12 8.8V8.8Z" stroke="white" stroke-width="2" stroke-linecap="round" stroke-linejoin="round"/>
<path d="M21 7V10.6C21 11.0774 21.1896 11.5352 21.5272 11.8728C21.8648 12.2104 22.3226 12.4 22.8 12.4H26.4" stroke="white" stroke-width="2" stroke-linejoin="round"/>
</svg>
