<svg width="38" height="32" viewBox="0 0 38 32" fill="none" xmlns="http://www.w3.org/2000/svg">
<rect width="38" height="32" rx="5" fill="#606060"/>
<path d="M20.5443 14.4563C19.7252 13.6375 18.6144 13.1776 17.4563 13.1776C16.2981 13.1776 15.1874 13.6375 14.3683 14.4563L11.2793 17.5443C10.4602 18.3634 10 19.4744 10 20.6328C10 21.7912 10.4602 22.9022 11.2793 23.7213C12.0984 24.5404 13.2094 25.0006 14.3678 25.0006C15.5262 25.0006 16.6372 24.5404 17.4563 23.7213L19.0003 22.1773" stroke="white" stroke-width="2" stroke-linecap="round" stroke-linejoin="round"/>
<path d="M17.4563 17.5443C18.2754 18.3631 19.3861 18.823 20.5443 18.823C21.7024 18.823 22.8132 18.3631 23.6323 17.5443L26.7213 14.4563C27.5404 13.6372 28.0006 12.5262 28.0006 11.3678C28.0006 10.2094 27.5404 9.09842 26.7213 8.2793C25.9022 7.46018 24.7912 7 23.6328 7C22.4744 7 21.3634 7.46018 20.5443 8.2793L19.0003 9.8233" stroke="white" stroke-width="2" stroke-linecap="round" stroke-linejoin="round"/>
</svg>
