<svg width="22" height="17" viewBox="0 0 22 17" fill="none" xmlns="http://www.w3.org/2000/svg">
<rect x="6" y="1" width="16" height="3" rx="1.5" fill="#C4C4C4"/>
<rect x="6" y="7" width="16" height="3" rx="1.5" fill="#C4C4C4"/>
<rect x="6" y="13" width="16" height="3" rx="1.5" fill="#C4C4C4"/>
<path d="M2.47852 6H1.57324V3.52148L1.58203 3.11426L1.59668 2.66895C1.44629 2.81934 1.3418 2.91797 1.2832 2.96484L0.791016 3.36035L0.354492 2.81543L1.73438 1.7168H2.47852V6Z" fill="#C4C4C4"/>
<path d="M3.23438 15H0.240234V14.3701L1.31543 13.2832C1.63379 12.957 1.8418 12.7314 1.93945 12.6064C2.03711 12.4795 2.10742 12.3623 2.15039 12.2549C2.19336 12.1475 2.21484 12.0361 2.21484 11.9209C2.21484 11.749 2.16699 11.6211 2.07129 11.5371C1.97754 11.4531 1.85156 11.4111 1.69336 11.4111C1.52734 11.4111 1.36621 11.4492 1.20996 11.5254C1.05371 11.6016 0.890625 11.71 0.720703 11.8506L0.228516 11.2676C0.439453 11.0879 0.614258 10.9609 0.75293 10.8867C0.891602 10.8125 1.04297 10.7559 1.20703 10.7168C1.37109 10.6758 1.55469 10.6553 1.75781 10.6553C2.02539 10.6553 2.26172 10.7041 2.4668 10.8018C2.67188 10.8994 2.83105 11.0361 2.94434 11.2119C3.05762 11.3877 3.11426 11.5889 3.11426 11.8154C3.11426 12.0127 3.0791 12.1982 3.00879 12.3721C2.94043 12.5439 2.83301 12.7207 2.68652 12.9023C2.54199 13.084 2.28613 13.3428 1.91895 13.6787L1.36816 14.1973V14.2383H3.23438V15Z" fill="#C4C4C4"/>
</svg>
