<svg width="15" height="20" viewBox="0 0 15 20" fill="none" xmlns="http://www.w3.org/2000/svg">
<path d="M4.40381 15.53C4.57881 15.4275 4.77006 15.3275 4.97756 15.2325C4.80227 15.4939 4.61455 15.7467 4.41506 15.99C4.06506 16.4113 3.79256 16.635 3.62131 16.705C3.60709 16.7111 3.59247 16.7161 3.57756 16.72C3.56508 16.7027 3.5542 16.6843 3.54506 16.665C3.47506 16.5275 3.47756 16.395 3.59506 16.215C3.72756 16.0088 3.99381 15.7725 4.40381 15.53ZM7.47256 13.4713C7.32381 13.5025 7.17631 13.5338 7.02756 13.5688C7.24788 13.1371 7.45629 12.6994 7.65256 12.2563C7.85015 12.6224 8.06283 12.9803 8.29006 13.3288C8.01881 13.3688 7.74506 13.4163 7.47256 13.4713ZM10.6288 14.645C10.4347 14.4884 10.2529 14.3171 10.0851 14.1325C10.3701 14.1388 10.6276 14.16 10.8501 14.2C11.2463 14.2713 11.4326 14.3838 11.4976 14.4613C11.518 14.4829 11.5296 14.5115 11.5301 14.5413C11.5257 14.6295 11.4999 14.7153 11.4551 14.7913C11.4299 14.8522 11.3894 14.9056 11.3376 14.9463C11.3118 14.9621 11.2814 14.9687 11.2513 14.965C11.1388 14.9613 10.9288 14.8825 10.6288 14.645ZM7.84756 8.71254C7.79756 9.01754 7.71256 9.36754 7.59756 9.74879C7.55519 9.60604 7.51808 9.46177 7.48631 9.31629C7.39131 8.87504 7.37756 8.52879 7.42881 8.28879C7.47631 8.06754 7.56631 7.97879 7.67381 7.93504C7.73146 7.90963 7.79253 7.89278 7.85506 7.88504C7.87131 7.92254 7.89006 8.00004 7.89506 8.13254C7.90131 8.28504 7.88631 8.47879 7.84756 8.71379V8.71254Z" fill="white"/>
<path fill-rule="evenodd" clip-rule="evenodd" d="M2.5 0H9.11625C9.44774 7.07968e-05 9.76563 0.131813 10 0.36625L14.6337 5C14.8682 5.23437 14.9999 5.55226 15 5.88375V17.5C15 18.163 14.7366 18.7989 14.2678 19.2678C13.7989 19.7366 13.163 20 12.5 20H2.5C1.83696 20 1.20107 19.7366 0.732233 19.2678C0.263392 18.7989 0 18.163 0 17.5V2.5C0 1.83696 0.263392 1.20107 0.732233 0.732233C1.20107 0.263392 1.83696 0 2.5 0V0ZM9.375 1.875V4.375C9.375 4.70652 9.5067 5.02446 9.74112 5.25888C9.97554 5.4933 10.2935 5.625 10.625 5.625H13.125L9.375 1.875ZM2.70625 17.085C2.81875 17.31 2.99375 17.5138 3.25375 17.6087C3.5125 17.7025 3.76875 17.6588 3.97875 17.5713C4.37625 17.4088 4.7725 17.0262 5.13625 16.5887C5.5525 16.0875 5.99 15.43 6.4125 14.7013C7.22816 14.4595 8.06344 14.2897 8.90875 14.1937C9.28375 14.6725 9.67125 15.085 10.0462 15.3813C10.3962 15.6562 10.8 15.885 11.2137 15.9025C11.4391 15.9137 11.6623 15.8533 11.8512 15.73C12.045 15.6037 12.1888 15.4213 12.2937 15.21C12.4062 14.9838 12.475 14.7475 12.4662 14.5062C12.4583 14.2684 12.3702 14.0402 12.2162 13.8587C11.9338 13.5212 11.4712 13.3587 11.0162 13.2775C10.4643 13.192 9.90429 13.171 9.3475 13.215C8.87732 12.5503 8.46736 11.845 8.1225 11.1075C8.435 10.2825 8.66875 9.5025 8.7725 8.865C8.8175 8.5925 8.84125 8.3325 8.8325 8.0975C8.83095 7.86423 8.77668 7.63434 8.67375 7.425C8.61445 7.30947 8.53018 7.20859 8.42705 7.12967C8.32392 7.05076 8.20451 6.99579 8.0775 6.96875C7.825 6.915 7.565 6.96875 7.32625 7.065C6.855 7.2525 6.60625 7.6525 6.5125 8.09375C6.42125 8.51875 6.4625 9.01375 6.57 9.51375C6.68 10.0212 6.8675 10.5738 7.1075 11.1325C6.72361 12.0872 6.28024 13.017 5.78 13.9163C5.1358 14.1189 4.51485 14.3892 3.9275 14.7225C3.465 14.9975 3.05375 15.3225 2.80625 15.7062C2.54375 16.1137 2.4625 16.5988 2.70625 17.085Z" fill="white"/>
</svg>
