<svg width="40" height="37" viewBox="0 0 40 37" fill="none" xmlns="http://www.w3.org/2000/svg">
<path d="M21.6523 19.9991C22.9784 19.9991 24.2501 20.5259 25.1877 21.4635C26.1254 22.4011 26.6521 23.6728 26.6521 24.9989L26.6488 27.4921C26.9921 33.6151 22.2757 36.6683 13.5327 36.6683C4.81978 36.665 0 33.6551 0 27.5821V24.9989C0 23.6728 0.52676 22.4011 1.4644 21.4635C2.40204 20.5259 3.67375 19.9991 4.99977 19.9991H21.6523ZM34.9851 19.9991C36.3111 19.9991 37.5828 20.5259 38.5204 21.4635C39.4581 22.4011 39.9849 23.6728 39.9849 24.9989V26.7555C40.2848 32.2452 36.1184 34.9984 28.5054 34.9984C27.4721 34.9984 26.4988 34.9484 25.5922 34.8484C27.3788 33.1952 28.3354 30.9553 28.332 28.1221L28.312 27.3988L28.3187 24.9989C28.3187 23.0056 27.4454 21.219 26.0588 19.9991H34.9851ZM13.3327 0C15.5428 0 17.6623 0.877934 19.225 2.44067C20.7877 4.0034 21.6657 6.12292 21.6657 8.33295C21.6657 10.543 20.7877 12.6625 19.225 14.2252C17.6623 15.788 15.5428 16.6659 13.3327 16.6659C11.1227 16.6659 9.00317 15.788 7.44044 14.2252C5.87771 12.6625 4.99977 10.543 4.99977 8.33295C4.99977 6.12292 5.87771 4.0034 7.44044 2.44067C9.00317 0.877934 11.1227 0 13.3327 0ZM29.9986 3.33318C31.7667 3.33318 33.4623 4.03553 34.7125 5.28571C35.9627 6.5359 36.665 8.23152 36.665 9.99955C36.665 11.7676 35.9627 13.4632 34.7125 14.7134C33.4623 15.9636 31.7667 16.6659 29.9986 16.6659C28.2306 16.6659 26.535 15.9636 25.2848 14.7134C24.0346 13.4632 23.3323 11.7676 23.3323 9.99955C23.3323 8.23152 24.0346 6.5359 25.2848 5.28571C26.535 4.03553 28.2306 3.33318 29.9986 3.33318Z" fill="white"/>
</svg>
