<svg width="15" height="20" viewBox="0 0 15 20" fill="none" xmlns="http://www.w3.org/2000/svg">
<path d="M5.6275 8.75C5.87373 8.75 6.11755 8.7015 6.34503 8.60727C6.57252 8.51305 6.77922 8.37494 6.95333 8.20083C7.12744 8.02672 7.26555 7.82002 7.35978 7.59253C7.454 7.36505 7.5025 7.12123 7.5025 6.875C7.5025 6.62877 7.454 6.38495 7.35978 6.15747C7.26555 5.92998 7.12744 5.72328 6.95333 5.54917C6.77922 5.37506 6.57252 5.23695 6.34503 5.14273C6.11755 5.0485 5.87373 5 5.6275 5C5.13022 5 4.65331 5.19754 4.30168 5.54917C3.95005 5.90081 3.7525 6.37772 3.7525 6.875C3.7525 7.37228 3.95005 7.84919 4.30168 8.20083C4.65331 8.55246 5.13022 8.75 5.6275 8.75Z" fill="white"/>
<path d="M15 17.5C15 18.163 14.7366 18.7989 14.2678 19.2678C13.7989 19.7366 13.163 20 12.5 20H2.5C1.83696 20 1.20107 19.7366 0.732233 19.2678C0.263392 18.7989 0 18.163 0 17.5V2.5C0 1.83696 0.263392 1.20107 0.732233 0.732233C1.20107 0.263392 1.83696 0 2.5 0L9.375 0L15 5.625V17.5ZM2.5 1.25C2.16848 1.25 1.85054 1.3817 1.61612 1.61612C1.3817 1.85054 1.25 2.16848 1.25 2.5V15L4.03 12.22C4.12852 12.1217 4.25702 12.0591 4.39515 12.0421C4.53327 12.0252 4.67311 12.0548 4.7925 12.1263L7.5 13.75L10.1962 9.975C10.249 9.90122 10.3172 9.8398 10.3961 9.79502C10.4749 9.75024 10.5626 9.72316 10.653 9.71567C10.7434 9.70818 10.8344 9.72045 10.9195 9.75163C11.0047 9.78281 11.0821 9.83216 11.1462 9.89625L13.75 12.5V5.625H11.25C10.7527 5.625 10.2758 5.42746 9.92417 5.07583C9.57254 4.72419 9.375 4.24728 9.375 3.75V1.25H2.5Z" fill="white"/>
</svg>
