<svg width="41" height="42" viewBox="0 0 41 42" fill="none" xmlns="http://www.w3.org/2000/svg">
<path d="M24.5104 41.8416H16.8953C16.4181 41.8416 15.9553 41.6786 15.5835 41.3795C15.2118 41.0804 14.9534 40.6633 14.8513 40.1972L13.9998 36.2557C12.864 35.758 11.7869 35.1356 10.7885 34.4L6.94534 35.6239C6.49045 35.769 5.99962 35.7541 5.55436 35.5817C5.10911 35.4093 4.73622 35.0898 4.49761 34.6762L0.681663 28.0841C0.445563 27.6701 0.356936 27.1883 0.430284 26.7174C0.503632 26.2465 0.734612 25.8145 1.08543 25.492L4.06664 22.7723C3.93107 21.5403 3.93107 20.2971 4.06664 19.0651L1.08543 16.3517C0.734115 16.029 0.502821 15.5966 0.429461 15.1253C0.356101 14.6539 0.445027 14.1717 0.681663 13.7575L4.48924 7.16118C4.72785 6.74761 5.10074 6.4281 5.546 6.2557C5.99125 6.08331 6.48208 6.06841 6.93698 6.21347L10.7801 7.43734C11.2906 7.06076 11.822 6.70929 12.3701 6.3913C12.8994 6.09422 13.4433 5.82434 13.9998 5.58376L14.8534 1.64647C14.955 1.18035 15.2129 0.762955 15.5843 0.463497C15.9556 0.164039 16.4182 0.000502027 16.8953 0H24.5104C24.9875 0.000502027 25.4501 0.164039 25.8214 0.463497C26.1928 0.762955 26.4507 1.18035 26.5523 1.64647L27.4142 5.58585C28 5.84527 28.5732 6.13606 29.1276 6.46034C29.6444 6.7595 30.1444 7.08796 30.6256 7.44152L34.4708 6.21766C34.9254 6.07313 35.4158 6.0883 35.8606 6.26067C36.3054 6.43304 36.6779 6.75224 36.9164 7.16537L40.724 13.7617C41.2094 14.6132 41.042 15.6906 40.3203 16.3538L37.339 19.0735C37.4746 20.3055 37.4746 21.5486 37.339 22.7806L40.3203 25.5003C41.042 26.1656 41.2094 27.2409 40.724 28.0924L36.9164 34.6887C36.6778 35.1023 36.305 35.4218 35.8597 35.5942C35.4144 35.7666 34.9236 35.7815 34.4687 35.6365L30.6256 34.4126C29.6279 35.1476 28.5515 35.7693 27.4163 36.2662L26.5523 40.1972C26.4503 40.6629 26.1922 41.0798 25.8209 41.3789C25.4495 41.6779 24.9872 41.8412 24.5104 41.8416ZM20.6945 12.5525C18.4751 12.5525 16.3466 13.4341 14.7772 15.0035C13.2078 16.5728 12.3262 18.7014 12.3262 20.9208C12.3262 23.1402 13.2078 25.2687 14.7772 26.8381C16.3466 28.4074 18.4751 29.2891 20.6945 29.2891C22.9139 29.2891 25.0424 28.4074 26.6118 26.8381C28.1811 25.2687 29.0628 23.1402 29.0628 20.9208C29.0628 18.7014 28.1811 16.5728 26.6118 15.0035C25.0424 13.4341 22.9139 12.5525 20.6945 12.5525Z" fill="white"/>
</svg>
