<svg width="24" height="26" viewBox="0 0 24 26" fill="none" xmlns="http://www.w3.org/2000/svg">
<path d="M19.5 18.163C18.5505 18.163 17.694 18.532 17.0445 19.126L8.1375 13.9315C8.2065 13.6495 8.25 13.3555 8.25 13.0555C8.25 12.7555 8.2065 12.463 8.1375 12.181L16.95 7.03749C17.6399 7.68757 18.552 8.04972 19.5 8.04999C21.5685 8.04999 23.25 6.36849 23.25 4.29999C23.25 2.23149 21.5685 0.549988 19.5 0.549988C17.4315 0.549988 15.75 2.23149 15.75 4.29999C15.75 4.59999 15.7935 4.89399 15.8625 5.17449L7.05 10.318C6.35964 9.66856 5.44781 9.30651 4.5 9.30549C2.4315 9.30549 0.75 10.987 0.75 13.0555C0.75 15.124 2.4315 16.8055 4.5 16.8055C5.44796 16.8052 6.36005 16.4431 7.05 15.793L15.957 20.9875C15.8914 21.2556 15.8577 21.5305 15.8565 21.8065C15.8568 22.5267 16.0706 23.2306 16.4709 23.8293C16.8712 24.428 17.44 24.8946 18.1055 25.17C18.7709 25.4455 19.503 25.5175 20.2094 25.3769C20.9157 25.2364 21.5645 24.8895 22.0738 24.3803C22.583 23.871 22.9299 23.2222 23.0704 22.5159C23.211 21.8095 23.139 21.0774 22.8636 20.4119C22.5881 19.7465 22.1215 19.1777 21.5228 18.7774C20.9241 18.3771 20.2202 18.1633 19.5 18.163Z" fill="white"/>
</svg>
