<svg width="19" height="19" viewBox="0 0 19 19" fill="none" xmlns="http://www.w3.org/2000/svg">
<path d="M19 1.46154C19 1.07391 18.846 0.702166 18.5719 0.428075C18.2978 0.153983 17.9261 0 17.5385 0H1.46154C1.07391 0 0.702166 0.153983 0.428075 0.428075C0.153983 0.702166 0 1.07391 0 1.46154V17.5385C0 17.9261 0.153983 18.2978 0.428075 18.5719C0.702166 18.846 1.07391 19 1.46154 19H17.5385C17.9261 19 18.2978 18.846 18.5719 18.5719C18.846 18.2978 19 17.9261 19 17.5385V1.46154ZM17.5385 1.46154V4.38462H1.46154V1.46154H17.5385ZM17.5385 17.5385H1.46154V14.6154H9.5H17.5385V17.5385ZM17.5385 13.1538H1.46154V10.2308H17.5385V13.1538ZM17.5385 8.76923H1.46154V5.84615H17.5385V8.76923Z" fill="white"/>
</svg>
