<svg width="33" height="11" viewBox="0 0 33 11" fill="none" xmlns="http://www.w3.org/2000/svg">
<path d="M4.38281 10H2.56641V2.94531H0.240234V1.43359H6.70898V2.94531H4.38281V10ZM12.0469 10L11.7012 9.10938H11.6543C11.3535 9.48828 11.043 9.75195 10.7227 9.90039C10.4062 10.0449 9.99219 10.1172 9.48047 10.1172C8.85156 10.1172 8.35547 9.9375 7.99219 9.57812C7.63281 9.21875 7.45312 8.70703 7.45312 8.04297C7.45312 7.34766 7.69531 6.83594 8.17969 6.50781C8.66797 6.17578 9.40234 5.99219 10.3828 5.95703L11.5195 5.92188V5.63477C11.5195 4.9707 11.1797 4.63867 10.5 4.63867C9.97656 4.63867 9.36133 4.79688 8.6543 5.11328L8.0625 3.90625C8.81641 3.51172 9.65234 3.31445 10.5703 3.31445C11.4492 3.31445 12.123 3.50586 12.5918 3.88867C13.0605 4.27148 13.2949 4.85352 13.2949 5.63477V10H12.0469ZM11.5195 6.96484L10.8281 6.98828C10.3086 7.00391 9.92188 7.09766 9.66797 7.26953C9.41406 7.44141 9.28711 7.70312 9.28711 8.05469C9.28711 8.55859 9.57617 8.81055 10.1543 8.81055C10.5684 8.81055 10.8984 8.69141 11.1445 8.45312C11.3945 8.21484 11.5195 7.89844 11.5195 7.50391V6.96484ZM18.7852 3.32617C19.5586 3.32617 20.1641 3.62891 20.6016 4.23438C21.0391 4.83594 21.2578 5.66211 21.2578 6.71289C21.2578 7.79492 21.0312 8.63281 20.5781 9.22656C20.1289 9.82031 19.5156 10.1172 18.7383 10.1172C17.9688 10.1172 17.3652 9.83789 16.9277 9.2793H16.8047L16.5059 10H15.1406V0.882812H16.9277V3.00391C16.9277 3.27344 16.9043 3.70508 16.8574 4.29883H16.9277C17.3457 3.65039 17.9648 3.32617 18.7852 3.32617ZM18.2109 4.75586C17.7695 4.75586 17.4473 4.89258 17.2441 5.16602C17.041 5.43555 16.9355 5.88281 16.9277 6.50781V6.70117C16.9277 7.4043 17.0312 7.9082 17.2383 8.21289C17.4492 8.51758 17.7812 8.66992 18.2344 8.66992C18.6016 8.66992 18.8926 8.50195 19.1074 8.16602C19.3262 7.82617 19.4355 7.33398 19.4355 6.68945C19.4355 6.04492 19.3262 5.5625 19.1074 5.24219C18.8887 4.91797 18.5898 4.75586 18.2109 4.75586ZM24.5215 10H22.7344V0.882812H24.5215V10ZM29.1152 4.59766C28.7363 4.59766 28.4395 4.71875 28.2246 4.96094C28.0098 5.19922 27.8867 5.53906 27.8555 5.98047H30.3633C30.3555 5.53906 30.2402 5.19922 30.0176 4.96094C29.7949 4.71875 29.4941 4.59766 29.1152 4.59766ZM29.3672 10.1172C28.3125 10.1172 27.4883 9.82617 26.8945 9.24414C26.3008 8.66211 26.0039 7.83789 26.0039 6.77148C26.0039 5.67383 26.2773 4.82617 26.8242 4.22852C27.375 3.62695 28.1348 3.32617 29.1035 3.32617C30.0293 3.32617 30.75 3.58984 31.2656 4.11719C31.7812 4.64453 32.0391 5.37305 32.0391 6.30273V7.16992H27.8145C27.834 7.67773 27.9844 8.07422 28.2656 8.35938C28.5469 8.64453 28.9414 8.78711 29.4492 8.78711C29.8438 8.78711 30.2168 8.74609 30.5684 8.66406C30.9199 8.58203 31.2871 8.45117 31.6699 8.27148V9.6543C31.3574 9.81055 31.0234 9.92578 30.668 10C30.3125 10.0781 29.8789 10.1172 29.3672 10.1172Z" fill="white"/>
</svg>
