<svg width="15" height="19" viewBox="0 0 15 19" fill="none" xmlns="http://www.w3.org/2000/svg">
<path d="M7.24 15.2C5.66667 15.2 4.43333 14.8533 3.54 14.16C2.64667 13.4667 2.2 12.3067 2.2 10.68V2.92C2.2 2.33333 2.03333 1.96 1.7 1.8C1.38 1.64 1 1.56 0.56 1.56H0.3V0.719999H6.12V1.56H5.86C5.40667 1.56 5.02 1.64667 4.7 1.82C4.38 1.98 4.22 2.37333 4.22 3V10.8C4.22 11.96 4.53333 12.7867 5.16 13.28C5.78667 13.76 6.58667 14 7.56 14C8.70667 14 9.55333 13.7067 10.1 13.12C10.6467 12.5333 10.92 11.7867 10.92 10.88V2.92C10.92 2.33333 10.7533 1.96 10.42 1.8C10.1 1.64 9.72 1.56 9.28 1.56H9.02V0.719999H14.04V1.56H13.78C13.3267 1.56 12.94 1.64667 12.62 1.82C12.3 1.98 12.14 2.37333 12.14 3V10.92C12.14 12.2533 11.72 13.3 10.88 14.06C10.04 14.82 8.82667 15.2 7.24 15.2Z" fill="white"/>
<path d="M0 17.5H14.34V18.5H0V17.5Z" fill="white"/>
</svg>
